<?xml version="1.0" encoding="utf-8"?>
<!-- Generator: Adobe Illustrator 16.0.3, SVG Export Plug-In . SVG Version: 6.00 Build 0)  -->
<!DOCTYPE svg PUBLIC "-//W3C//DTD SVG 1.1//EN" "http://www.w3.org/Graphics/SVG/1.1/DTD/svg11.dtd">
<svg enable-background="new 0 0 40 40" height="40px"  version="1.1" viewBox="0 0 40 40" width="40px"
	 x="0px" xmlns="http://www.w3.org/2000/svg" y="0px" xml:space="preserve">
<g id="Warstwa_3">
</g>
<g display="none" id="Warstwa_2">
	<g display="inline">
		<path d="M19.873,29.317c3.014,0,4.976-1.655,5.873-2.631c-1.533-1.056-2.595-1.679-2.874-1.837
			c-0.892,0.346-1.867,0.539-2.922,0.539s-2.03-0.193-2.921-0.539c-0.293,0.166-1.431,0.833-3.07,1.972
			C14.723,27.648,16.658,29.317,19.873,29.317z" fill="none"/>
		<path d="M28.451,28.664c-0.519-0.403-1.005-0.764-1.474-1.105c-1.027,1.158-3.398,3.259-7.104,3.259
			c-3.939,0-6.277-2.142-7.141-3.12c-0.411,0.301-0.836,0.62-1.283,0.967c-2.302,1.787-2.158,5.131-1.982,6.524
			C12.459,37.27,16.086,38.5,20,38.5c3.864,0,7.452-1.194,10.423-3.229C30.6,33.929,30.79,30.479,28.451,28.664z" fill="none"/>
		<path d="M20,1.5C9.799,1.5,1.5,9.798,1.5,20c0,5.563,2.479,10.547,6.377,13.941C7.854,32,8.273,29.23,10.529,27.478
			c2.171-1.685,3.932-2.829,4.943-3.448c-2.983-1.994-4.672-5.896-4.672-9.715c0-5.662,3.592-9.32,9.15-9.32s9.15,3.658,9.15,9.32
			c0,3.818-1.689,7.72-4.672,9.715c1.011,0.619,2.772,1.764,4.942,3.448c2.291,1.779,2.691,4.609,2.653,6.554
			C35.981,30.636,38.5,25.611,38.5,20C38.5,9.798,30.202,1.5,20,1.5z" fill="none"/>
		<path d="M40,20C40,8.954,31.046,0,20,0S0,8.954,0,20c0,6.572,3.184,12.386,8.078,16.031
			c0.013,0.063,0.022,0.109,0.026,0.126l0.11-0.024C11.522,38.553,15.587,40,20,40c4.402,0,8.46-1.439,11.764-3.85l0.032,0.007
			c0.001-0.005,0.006-0.027,0.008-0.038C36.766,32.48,40,26.625,40,20z M9.466,35.188c-0.176-1.394-0.319-4.737,1.982-6.524
			c0.447-0.347,0.873-0.666,1.283-0.967c0.863,0.979,3.201,3.12,7.141,3.12c3.706,0,6.077-2.101,7.104-3.259
			c0.469,0.342,0.955,0.702,1.474,1.105c2.339,1.815,2.149,5.266,1.973,6.607C27.453,37.305,23.865,38.5,20,38.5
			C16.086,38.5,12.459,37.27,9.466,35.188z M22.87,13.422c-2.679-0.744-3.637-2.45-3.674-2.517
			c-0.127-0.242-0.378-0.394-0.651-0.398c-0.301-0.003-0.529,0.142-0.665,0.379c-0.007,0.012-0.729,1.256-2.209,2.097
			c-0.958,0.542-2.406,0.79-3.355,0.899c0.173-4.562,3.053-7.387,7.634-7.387c4.524,0,7.392,2.756,7.627,7.221
			C26.6,13.845,24.792,13.957,22.87,13.422z M12.361,15.387c1.069-0.116,2.821-0.403,4.049-1.099
			c0.969-0.55,1.673-1.233,2.129-1.771c0.679,0.756,1.919,1.793,3.929,2.351c2.041,0.567,3.945,0.496,5.097,0.361
			c-0.272,3.578-2.137,6.949-5.121,8.173c-0.012,0.005-0.021,0.012-0.033,0.016c-0.216,0.087-0.439,0.157-0.666,0.221
			c-0.037,0.011-0.072,0.026-0.109,0.036c-0.251,0.065-0.51,0.114-0.773,0.15c-0.017,0.002-0.031,0.007-0.048,0.009
			c-0.28,0.036-0.569,0.055-0.864,0.055c-0.292,0-0.577-0.02-0.855-0.054c-0.038-0.005-0.073-0.015-0.11-0.021
			c-0.244-0.034-0.484-0.079-0.717-0.139c-0.009-0.002-0.018-0.006-0.027-0.009c-2.63-0.689-4.508-2.95-5.381-5.738
			c-0.018-0.056-0.035-0.113-0.053-0.169c-0.055-0.186-0.105-0.373-0.151-0.563c-0.032-0.128-0.062-0.257-0.089-0.387
			c-0.024-0.115-0.045-0.23-0.066-0.347c-0.036-0.2-0.069-0.4-0.095-0.602c-0.006-0.048-0.011-0.096-0.016-0.144
			c-0.013-0.11-0.027-0.22-0.037-0.33C12.355,15.387,12.358,15.387,12.361,15.387z M19.95,25.388c1.055,0,2.03-0.193,2.922-0.539
			c0.279,0.158,1.341,0.781,2.874,1.837c-0.897,0.976-2.859,2.631-5.873,2.631c-3.214,0-5.15-1.669-5.914-2.496
			c1.64-1.139,2.777-1.806,3.07-1.972C17.92,25.195,18.895,25.388,19.95,25.388z M32.024,34.032
			c0.038-1.944-0.362-4.774-2.653-6.554c-2.17-1.685-3.932-2.829-4.942-3.448c2.982-1.995,4.672-5.896,4.672-9.715
			c0-5.662-3.592-9.32-9.15-9.32s-9.15,3.658-9.15,9.32c0,3.818,1.689,7.721,4.672,9.715c-1.011,0.619-2.772,1.764-4.943,3.448
			C8.273,29.23,7.854,32,7.878,33.941C3.979,30.546,1.5,25.562,1.5,20C1.5,9.798,9.799,1.5,20,1.5S38.5,9.798,38.5,20
			C38.5,25.611,35.981,30.636,32.024,34.032z" fill="#AAAAAA"/>
		<path d="M18.268,23.675c-0.009-0.002-0.018-0.006-0.027-0.009C18.25,23.669,18.259,23.673,18.268,23.675z" fill="#E2E2E2"/>
		<path d="M12.361,15.387c-0.003,0-0.006,0-0.009,0.001c0.01,0.11,0.024,0.22,0.037,0.33
			C12.377,15.607,12.371,15.497,12.361,15.387z" fill="#E2E2E2"/>
		<path d="M22.444,23.402c-0.012,0.005-0.021,0.012-0.033,0.016C22.422,23.414,22.432,23.407,22.444,23.402z" fill="#E2E2E2"/>
		<path d="M19.95,6.495c-4.581,0-7.46,2.825-7.634,7.387c0.949-0.109,2.397-0.356,3.355-0.899
			c1.48-0.84,2.202-2.084,2.209-2.097c0.136-0.238,0.364-0.382,0.665-0.379c0.273,0.004,0.524,0.156,0.651,0.398
			c0.037,0.067,0.995,1.773,3.674,2.517c1.922,0.534,3.73,0.422,4.707,0.293C27.341,9.251,24.474,6.495,19.95,6.495z" fill="#E2E2E2"/>
		<path d="M19.095,23.834c-0.038-0.005-0.073-0.015-0.11-0.021C19.022,23.82,19.057,23.83,19.095,23.834z" fill="#E2E2E2"/>
		<path d="M20.862,23.825c-0.017,0.002-0.031,0.007-0.048,0.009C20.831,23.832,20.845,23.827,20.862,23.825z" fill="#E2E2E2"/>
		<path d="M12.86,17.929c-0.018-0.057-0.036-0.112-0.053-0.169C12.825,17.816,12.842,17.873,12.86,17.929z" fill="#E2E2E2"/>
		<path d="M21.745,23.638c-0.037,0.011-0.072,0.026-0.109,0.036C21.672,23.665,21.708,23.649,21.745,23.638z" fill="#E2E2E2"/>
		<path d="M12.501,16.463c-0.036-0.2-0.069-0.4-0.095-0.602C12.432,16.063,12.465,16.263,12.501,16.463z" fill="#E2E2E2"/>
		<path d="M12.656,17.197c-0.031-0.128-0.063-0.256-0.089-0.387C12.594,16.94,12.625,17.068,12.656,17.197z" fill="#E2E2E2"/>
	</g>
</g>
<g display="none" id="Warstwa_4">
	<g display="inline">
		<path d="M24.79,23.794c-1.162-0.748-1.858-1.135-1.872-1.142c-0.021-0.012-0.033-0.031-0.053-0.045
			c-0.994,0.383-2.08,0.599-3.254,0.599c-1.173,0-2.258-0.216-3.252-0.598c-0.02,0.013-0.031,0.032-0.052,0.044
			c-0.02,0.011-1.495,0.829-3.746,2.401c0.824,0.926,3.099,3,6.961,3c1.989,0,3.58-0.624,4.78-1.368v-1.142
			C24.302,24.843,24.483,24.25,24.79,23.794z" fill="none"/>
		<path d="M14.751,9.277c1.73-0.981,2.571-2.435,2.58-2.449c0.135-0.238,0.385-0.388,0.665-0.38
			c0.274,0.004,0.524,0.157,0.652,0.399c0.044,0.081,1.161,2.078,4.29,2.947c2.207,0.613,4.301,0.487,5.439,0.339
			c-0.229-5.193-3.53-8.404-8.766-8.404c-5.298,0-8.616,3.291-8.771,8.597C11.938,10.199,13.63,9.912,14.751,9.277z" fill="#E2E2E2"/>
		<path d="M11.229,14.002c-0.032-0.136-0.066-0.271-0.095-0.409C11.164,13.731,11.196,13.867,11.229,14.002z" fill="#E2E2E2"/>
		<path d="M11.463,14.848c-0.018-0.056-0.035-0.111-0.052-0.167C11.428,14.737,11.446,14.792,11.463,14.848z" fill="#E2E2E2"/>
		<path d="M28.256,12.66c-0.005,0.038-0.007,0.076-0.013,0.114C28.25,12.736,28.251,12.697,28.256,12.66z" fill="#E2E2E2"/>
		<path d="M18.628,21.644c-0.042-0.005-0.081-0.016-0.122-0.021C18.548,21.628,18.587,21.639,18.628,21.644z" fill="#E2E2E2"/>
		<path d="M20.698,21.625c-0.032,0.005-0.062,0.015-0.094,0.019C20.636,21.64,20.666,21.63,20.698,21.625z" fill="#E2E2E2"/>
		<path d="M11.051,13.153c-0.038-0.215-0.075-0.43-0.103-0.648C10.978,12.723,11.012,12.938,11.051,13.153z" fill="#E2E2E2"/>
		<path d="M17.679,21.462c-0.01-0.003-0.02-0.007-0.03-0.01C17.66,21.456,17.669,21.459,17.679,21.462z" fill="#E2E2E2"/>
		<path d="M28.364,11.648C28.364,11.648,28.364,11.648,28.364,11.648c-0.003,0.034-0.002,0.068-0.004,0.102
			C28.362,11.716,28.361,11.682,28.364,11.648z" fill="#E2E2E2"/>
		<path d="M10.873,11.831c0.013,0.153,0.034,0.305,0.052,0.458c-0.017-0.152-0.027-0.306-0.039-0.459
			C10.881,11.83,10.877,11.831,10.873,11.831z" fill="#E2E2E2"/>
		<path d="M37.5,30.448L27.405,24.62c-0.306-0.177-0.595-0.27-0.837-0.27c-0.691,0-0.766,0.835-0.766,1.194v11.658
			c0,0.359,0.074,1.193,0.766,1.193c0.242,0,0.532-0.093,0.837-0.269L37.5,32.299c0.477-0.275,0.75-0.612,0.75-0.925
			C38.25,31.061,37.977,30.723,37.5,30.448z" fill="#E2E2E2"/>
		<path d="M38.25,29.149l-10.096-5.828c-0.54-0.313-1.074-0.471-1.587-0.471c-0.144,0-0.28,0.019-0.413,0.042
			c-0.71-0.469-1.292-0.832-1.718-1.088c3.482-2.206,5.462-6.697,5.462-11.093c0-6.368-4.038-10.483-10.288-10.483
			c-6.249,0-10.287,4.115-10.287,10.483c0,4.396,1.979,8.888,5.461,11.093c-1.1,0.663-3.248,2.033-5.927,4.114
			c-4.176,3.241-2.806,9.588-2.746,9.856c0.079,0.349,0.388,0.586,0.731,0.586c0.054,0,0.109-0.006,0.165-0.019
			c0.404-0.09,0.658-0.491,0.568-0.895c-0.013-0.057-1.217-5.69,2.202-8.344c0.542-0.422,1.061-0.811,1.557-1.174
			c0.924,1.072,3.603,3.624,8.187,3.624c1.906,0,3.495-0.493,4.78-1.151v8.8c0,1.611,0.91,2.693,2.266,2.693
			c0.513,0,1.046-0.158,1.587-0.47l10.096-5.828c0.953-0.55,1.5-1.359,1.5-2.223C39.75,30.511,39.205,29.701,38.25,29.149z
			 M37.5,32.299l-10.096,5.828c-0.305,0.176-0.595,0.269-0.837,0.269c-0.691,0-0.766-0.834-0.766-1.193V25.544
			c0-0.359,0.074-1.194,0.766-1.194c0.242,0,0.531,0.093,0.837,0.27L37.5,30.448c0.477,0.275,0.75,0.613,0.75,0.927
			C38.25,31.687,37.977,32.024,37.5,32.299z M19.611,1.728c5.235,0,8.536,3.211,8.766,8.404c-1.139,0.148-3.232,0.273-5.439-0.339
			c-3.129-0.869-4.246-2.866-4.29-2.947c-0.127-0.242-0.378-0.395-0.652-0.399c-0.28-0.007-0.529,0.142-0.665,0.38
			c-0.008,0.015-0.849,1.468-2.58,2.449c-1.121,0.635-2.813,0.922-3.912,1.048C10.995,5.019,14.313,1.728,19.611,1.728z
			 M11.463,14.848c-0.018-0.056-0.035-0.111-0.052-0.167c-0.067-0.224-0.127-0.45-0.183-0.679c-0.033-0.136-0.065-0.271-0.095-0.409
			c-0.03-0.146-0.057-0.292-0.083-0.44c-0.039-0.215-0.074-0.431-0.103-0.648c-0.009-0.072-0.016-0.144-0.024-0.216
			c-0.018-0.152-0.039-0.304-0.052-0.458c0.004,0,0.008-0.001,0.013-0.001c1.218-0.132,3.211-0.458,4.605-1.248
			c1.162-0.658,1.986-1.484,2.5-2.106c0.747,0.861,2.172,2.104,4.546,2.763c2.338,0.649,4.519,0.564,5.828,0.41c0,0,0,0,0,0
			c-0.003,0.034-0.002,0.068-0.004,0.102c-0.023,0.305-0.061,0.608-0.104,0.91c-0.005,0.038-0.007,0.076-0.013,0.114
			c-0.66,4.381-3.403,8.268-7.546,8.852c-0.032,0.005-0.062,0.015-0.094,0.019c-0.322,0.041-0.654,0.063-0.993,0.063
			c-0.336,0-0.663-0.022-0.982-0.063c-0.042-0.005-0.081-0.016-0.122-0.021c-0.282-0.04-0.559-0.092-0.827-0.16
			c-0.01-0.003-0.02-0.007-0.03-0.01C14.624,20.66,12.464,18.056,11.463,14.848z M19.522,28.054c-3.862,0-6.137-2.074-6.961-3
			c2.251-1.572,3.726-2.391,3.746-2.401c0.021-0.012,0.033-0.031,0.052-0.044c0.994,0.382,2.079,0.598,3.252,0.598
			c1.174,0,2.26-0.216,3.254-0.599c0.02,0.014,0.031,0.033,0.053,0.045c0.014,0.007,0.71,0.394,1.872,1.142
			c-0.307,0.456-0.487,1.049-0.487,1.75v1.142C23.102,27.43,21.511,28.054,19.522,28.054z" fill="#AAAAAA"/>
	</g>
</g>
<g display="none" id="Warstwa_14">
	<g display="inline">
		<path d="M27.987,13.396c-1.56,0-2.833-1.275-2.831-2.834l0.009-7.396H6.028c-1.049,0-1.903,0.854-1.903,1.903
			v30.414c0,1.049,0.854,1.902,1.903,1.902h27.224c1.049,0,1.902-0.854,1.902-1.902V13.396H27.987z M19.639,33.006
			c-5.397,0-9.789-4.392-9.789-9.79c0-5.397,4.391-9.788,9.789-9.788s9.789,4.391,9.789,9.788
			C29.428,28.615,25.037,33.006,19.639,33.006z" fill="#E2E2E2"/>
		<path d="M34.686,11.386l-0.021-0.021l0.005,0.005C34.675,11.376,34.681,11.381,34.686,11.386z" fill="#E2E2E2"/>
		<path d="M19.639,13.428c-5.397,0-9.789,4.391-9.789,9.788c0,5.398,4.391,9.79,9.789,9.79s9.789-4.392,9.789-9.79
			C29.428,17.819,25.037,13.428,19.639,13.428z M19.639,31.506c-4.57,0-8.289-3.719-8.289-8.29c0-4.317,3.319-7.869,7.539-8.25v9
			h9.001C27.509,28.187,23.957,31.506,19.639,31.506z M20.389,14.966c3.973,0.358,7.143,3.528,7.501,7.5h-7.501V14.966z" fill="#AAAAAA"/>
		<path d="M27.047,11.504c0.253,0.253,0.586,0.393,0.939,0.393h5.099l-6.421-6.561l-0.009,5.229
			C26.656,10.917,26.794,11.251,27.047,11.504z" fill="#E2E2E2"/>
		<path d="M34.686,11.386c-0.005-0.005-0.011-0.01-0.016-0.015l-0.005-0.005l-9.496-9.7H6.028
			c-1.878,0-3.403,1.523-3.403,3.403v30.414c0,1.879,1.524,3.402,3.403,3.402h27.224c1.879,0,3.402-1.523,3.402-3.402V13.396
			L34.686,11.386z M33.085,11.896h-5.099c-0.354,0-0.687-0.139-0.939-0.393c-0.253-0.253-0.392-0.587-0.392-0.939l0.009-5.229
			L33.085,11.896z M33.251,37.384H6.028c-1.049,0-1.903-0.854-1.903-1.902V5.068c0-1.049,0.854-1.903,1.903-1.903h19.137
			l-0.009,7.396c-0.002,1.559,1.271,2.834,2.831,2.834h7.167v22.085C35.154,36.531,34.3,37.384,33.251,37.384z" fill="#AAAAAA"/>
	</g>
</g>
<g display="none" id="Warstwa_6">
	<g display="inline">
		<path d="M25.658,5.28c0-0.689-0.561-1.25-1.25-1.25h-8.814c-0.689,0-1.25,0.561-1.25,1.25v2.188h11.314V5.28z" fill="none"/>
		<path d="M15.831,24.523c0.544-1.797,2.196-3.117,4.169-3.117c1.972,0,3.625,1.32,4.169,3.117L36,16.962v-6.495
			c0-0.827-0.673-1.5-1.5-1.5H5.5c-0.827,0-1.5,0.673-1.5,1.5v6.495L15.831,24.523z" fill="#E2E2E2"/>
		<path d="M24.333,26.199c-0.215,2.214-2.064,3.957-4.333,3.957c-2.27,0-4.119-1.743-4.333-3.957L4,18.742v16.539
			c0,0.827,0.673,1.5,1.5,1.5H34.5c0.827,0,1.5-0.673,1.5-1.5V18.743L24.333,26.199z" fill="#E2E2E2"/>
		<path d="M34.5,7.468h-7.343V5.28c0-1.517-1.233-2.75-2.75-2.75h-8.814c-1.517,0-2.75,1.233-2.75,2.75v2.188H5.5
			c-1.656,0-3,1.343-3,3v24.813c0,1.656,1.344,3,3,3H34.5c1.656,0,3-1.344,3-3V10.468C37.5,8.811,36.157,7.468,34.5,7.468z
			 M22.875,25.781c0,1.585-1.29,2.875-2.875,2.875s-2.875-1.29-2.875-2.875s1.29-2.875,2.875-2.875S22.875,24.196,22.875,25.781z
			 M14.343,5.28c0-0.689,0.561-1.25,1.25-1.25h8.814c0.689,0,1.25,0.561,1.25,1.25v2.188H14.343V5.28z M5.5,8.968H34.5
			c0.827,0,1.5,0.673,1.5,1.5v6.495l-11.831,7.561c-0.545-1.797-2.197-3.117-4.169-3.117c-1.973,0-3.625,1.32-4.169,3.117L4,16.962
			v-6.495C4,9.641,4.672,8.968,5.5,8.968z M34.5,36.781H5.5c-0.827,0-1.5-0.673-1.5-1.5V18.742l11.668,7.457
			c0.214,2.214,2.063,3.957,4.333,3.957c2.269,0,4.119-1.743,4.333-3.957L36,18.743v16.538C36,36.108,35.328,36.781,34.5,36.781z" fill="#AAAAAA"/>
	</g>
</g>
<g id="Warstwa_7">
	<g>
		<circle cx="32.407" cy="26.972" fill="none" r="1.375"/>
		<path d="M13.906,15.695c-1.918,0-3.479,1.561-3.479,3.479s1.561,3.479,3.479,3.479s3.479-1.561,3.479-3.479
			S15.825,15.695,13.906,15.695z" fill="none"/>
		<path d="M36.158,26.037c-0.094-0.375-0.241-0.729-0.437-1.055c-0.153-0.255-0.142-0.574,0.028-0.817l0.744-1.061
			l-0.23-0.229l-1.04,0.746c-0.245,0.177-0.569,0.187-0.826,0.032c-0.329-0.199-0.686-0.348-1.059-0.441
			c-0.288-0.072-0.506-0.307-0.558-0.599l-0.221-1.266h-0.326l-0.204,1.252c-0.049,0.296-0.269,0.535-0.561,0.607
			c-0.379,0.093-0.736,0.24-1.063,0.437c-0.257,0.154-0.578,0.14-0.821-0.033l-1.034-0.738l-0.232,0.231l0.73,1.045
			c0.171,0.243,0.181,0.563,0.027,0.818c-0.2,0.331-0.35,0.689-0.443,1.066c-0.072,0.289-0.31,0.509-0.604,0.559l-1.246,0.207v0.33
			l1.25,0.221c0.291,0.051,0.525,0.27,0.597,0.557c0.094,0.378,0.243,0.735,0.444,1.064c0.156,0.257,0.145,0.583-0.031,0.827
			l-0.736,1.029l0.231,0.232l1.048-0.732c0.241-0.17,0.563-0.181,0.815-0.029c0.332,0.199,0.689,0.347,1.063,0.438
			c0.292,0.071,0.512,0.31,0.562,0.605l0.208,1.258h0.33l0.226-1.27c0.052-0.291,0.269-0.524,0.555-0.597
			c0.374-0.094,0.729-0.242,1.055-0.441c0.254-0.157,0.577-0.145,0.821,0.025l1.057,0.742l0.23-0.23l-0.75-1.041
			c-0.176-0.244-0.189-0.57-0.033-0.827c0.196-0.323,0.342-0.677,0.436-1.052c0.071-0.288,0.306-0.507,0.599-0.558l1.275-0.224V26.8
			l-1.268-0.207C36.469,26.544,36.231,26.326,36.158,26.037z M32.407,29.847c-1.585,0-2.875-1.29-2.875-2.875
			s1.29-2.875,2.875-2.875s2.875,1.29,2.875,2.875S33.992,29.847,32.407,29.847z" fill="none"/>
		<path d="M21.175,24.342c-0.176-0.244-0.188-0.568-0.034-0.826c0.43-0.711,0.749-1.484,0.949-2.298
			c0.071-0.288,0.307-0.508,0.599-0.559l3.155-0.554v-1.904l-3.146-0.515c-0.296-0.048-0.534-0.268-0.606-0.559
			c-0.202-0.81-0.522-1.583-0.952-2.298c-0.153-0.254-0.142-0.574,0.028-0.817l1.838-2.621l-1.347-1.345l-2.578,1.852
			c-0.244,0.176-0.569,0.19-0.826,0.033c-0.722-0.437-1.5-0.76-2.311-0.96c-0.288-0.071-0.507-0.306-0.559-0.599l-0.548-3.136
			h-1.904l-0.509,3.115c-0.048,0.296-0.27,0.536-0.561,0.607c-0.825,0.203-1.604,0.523-2.318,0.953
			c-0.255,0.154-0.579,0.142-0.823-0.032l-2.57-1.837l-1.349,1.348l1.81,2.59c0.17,0.243,0.181,0.563,0.027,0.817
			c-0.436,0.721-0.761,1.504-0.967,2.328c-0.073,0.29-0.31,0.509-0.604,0.558L1.969,18.2v1.907l3.104,0.551
			c0.292,0.052,0.525,0.27,0.597,0.557c0.204,0.818,0.529,1.602,0.967,2.327c0.155,0.256,0.142,0.58-0.032,0.824l-1.832,2.561
			l1.349,1.35l2.594-1.816c0.243-0.17,0.562-0.183,0.816-0.028c0.722,0.434,1.502,0.756,2.319,0.957
			c0.291,0.072,0.511,0.31,0.56,0.605l0.52,3.121h1.908l0.557-3.137c0.051-0.29,0.268-0.522,0.553-0.596
			c0.822-0.21,1.598-0.536,2.305-0.968c0.255-0.157,0.577-0.146,0.822,0.025l2.615,1.836l1.346-1.348L21.175,24.342z M13.906,24.154
			c-2.746,0-4.979-2.233-4.979-4.979s2.233-4.979,4.979-4.979s4.979,2.234,4.979,4.979S16.652,24.154,13.906,24.154z" fill="#E2E2E2"/>
		<path d="M22.673,23.856c0.307-0.573,0.556-1.176,0.743-1.802l3.308-0.58c0.358-0.063,0.62-0.374,0.62-0.738v-3.171
			c0-0.368-0.267-0.681-0.629-0.74l-3.302-0.541c-0.189-0.623-0.438-1.224-0.745-1.797l1.927-2.749
			c0.209-0.298,0.174-0.704-0.084-0.961l-2.242-2.241c-0.261-0.26-0.669-0.294-0.968-0.079L18.596,10.4
			c-0.58-0.312-1.188-0.564-1.815-0.754l-0.575-3.289c-0.063-0.359-0.375-0.621-0.739-0.621h-3.172c-0.368,0-0.681,0.267-0.74,0.629
			l-0.534,3.268c-0.632,0.189-1.24,0.439-1.816,0.747L6.507,8.452C6.21,8.241,5.801,8.273,5.541,8.532l-2.242,2.242
			c-0.257,0.257-0.293,0.662-0.084,0.96l1.898,2.717c-0.313,0.583-0.568,1.195-0.761,1.832l-3.256,0.542
			c-0.362,0.06-0.627,0.373-0.627,0.74v3.171c0,0.363,0.261,0.675,0.619,0.738l3.257,0.578c0.192,0.634,0.446,1.246,0.761,1.831
			l-1.922,2.688c-0.213,0.299-0.18,0.707,0.08,0.967l2.243,2.244c0.258,0.258,0.664,0.293,0.96,0.084l2.722-1.906
			c0.581,0.312,1.191,0.563,1.822,0.754l0.545,3.274c0.06,0.361,0.373,0.627,0.74,0.627h3.172c0.364,0,0.675-0.261,0.738-0.619
			l0.585-3.292c0.633-0.195,1.24-0.449,1.814-0.761l2.74,1.923c0.297,0.207,0.704,0.175,0.961-0.084l2.242-2.244
			c0.26-0.26,0.293-0.67,0.078-0.969L22.673,23.856z M19.076,26.44c-0.245-0.171-0.567-0.183-0.822-0.025
			c-0.708,0.432-1.483,0.758-2.305,0.968c-0.285,0.073-0.501,0.306-0.553,0.596l-0.557,3.137h-1.908l-0.52-3.121
			c-0.049-0.296-0.269-0.533-0.56-0.605c-0.817-0.201-1.597-0.523-2.319-0.957c-0.254-0.154-0.573-0.142-0.816,0.028l-2.594,1.816
			l-1.349-1.35l1.832-2.561c0.174-0.244,0.187-0.568,0.032-0.824c-0.438-0.726-0.764-1.509-0.967-2.327
			c-0.072-0.287-0.306-0.505-0.597-0.557l-3.104-0.551V18.2l3.101-0.516c0.294-0.049,0.532-0.268,0.604-0.558
			c0.207-0.824,0.532-1.607,0.967-2.328c0.153-0.254,0.143-0.574-0.027-0.817l-1.81-2.59l1.349-1.348l2.57,1.837
			c0.244,0.174,0.567,0.186,0.823,0.032c0.713-0.43,1.493-0.75,2.318-0.953c0.292-0.072,0.513-0.311,0.561-0.607l0.509-3.115h1.904
			l0.548,3.136c0.051,0.292,0.271,0.527,0.559,0.599c0.811,0.201,1.589,0.524,2.311,0.96c0.257,0.157,0.582,0.143,0.826-0.033
			l2.578-1.852l1.347,1.345l-1.838,2.621c-0.17,0.243-0.182,0.563-0.028,0.817c0.43,0.715,0.75,1.488,0.952,2.298
			c0.072,0.291,0.311,0.51,0.606,0.559l3.146,0.515v1.904l-3.155,0.554c-0.292,0.051-0.527,0.271-0.599,0.559
			c-0.2,0.813-0.52,1.587-0.949,2.298c-0.154,0.258-0.142,0.582,0.034,0.826l1.861,2.586l-1.346,1.348L19.076,26.44z" fill="#AAAAAA"/>
		<path d="M13.906,14.195c-2.746,0-4.979,2.234-4.979,4.979s2.233,4.979,4.979,4.979s4.979-2.233,4.979-4.979
			S16.652,14.195,13.906,14.195z M13.906,22.654c-1.918,0-3.479-1.561-3.479-3.479s1.561-3.479,3.479-3.479s3.479,1.561,3.479,3.479
			S15.825,22.654,13.906,22.654z" fill="#AAAAAA"/>
		<path d="M38.903,25.423l-1.436-0.235c-0.065-0.185-0.14-0.364-0.225-0.54l0.841-1.198
			c0.209-0.299,0.174-0.704-0.084-0.962l-1.127-1.125c-0.261-0.259-0.669-0.293-0.968-0.078l-1.175,0.844
			c-0.18-0.087-0.363-0.163-0.551-0.229l-0.251-1.432c-0.063-0.359-0.374-0.621-0.738-0.621h-1.594c-0.367,0-0.681,0.267-0.74,0.629
			l-0.231,1.417c-0.187,0.064-0.37,0.14-0.548,0.225l-1.172-0.837c-0.297-0.212-0.706-0.18-0.966,0.079l-1.127,1.125
			c-0.257,0.258-0.293,0.663-0.084,0.961l0.826,1.182c-0.088,0.182-0.166,0.369-0.233,0.56l-1.412,0.235
			c-0.362,0.061-0.627,0.374-0.627,0.74v1.594c0,0.364,0.261,0.675,0.619,0.738l1.415,0.25c0.066,0.191,0.145,0.379,0.233,0.561
			l-0.834,1.165c-0.214,0.298-0.181,0.707,0.079,0.967l1.127,1.127c0.258,0.258,0.661,0.291,0.96,0.084l1.185-0.829
			c0.181,0.087,0.366,0.163,0.555,0.229l0.235,1.423c0.061,0.361,0.373,0.627,0.74,0.627h1.594c0.363,0,0.675-0.261,0.738-0.619
			l0.256-1.436c0.188-0.067,0.374-0.145,0.554-0.232l1.191,0.837c0.297,0.208,0.702,0.175,0.961-0.084l1.127-1.127
			c0.26-0.26,0.293-0.67,0.078-0.969l-0.849-1.178c0.085-0.176,0.159-0.357,0.225-0.543l1.439-0.253
			c0.359-0.063,0.621-0.374,0.621-0.738v-1.594C39.532,25.796,39.265,25.483,38.903,25.423z M38.032,27.127l-1.275,0.224
			c-0.293,0.051-0.527,0.27-0.599,0.558c-0.094,0.375-0.239,0.729-0.436,1.052c-0.156,0.257-0.143,0.583,0.033,0.827l0.75,1.041
			l-0.23,0.23l-1.057-0.742c-0.244-0.17-0.567-0.183-0.821-0.025c-0.326,0.199-0.681,0.348-1.055,0.441
			c-0.286,0.072-0.503,0.306-0.555,0.597l-0.226,1.27h-0.33l-0.208-1.258c-0.05-0.296-0.27-0.534-0.562-0.605
			c-0.373-0.092-0.73-0.239-1.063-0.438c-0.253-0.151-0.574-0.141-0.815,0.029l-1.048,0.732l-0.231-0.232l0.736-1.029
			c0.176-0.244,0.188-0.57,0.031-0.827c-0.201-0.329-0.351-0.687-0.444-1.064c-0.071-0.287-0.306-0.506-0.597-0.557l-1.25-0.221
			v-0.33l1.246-0.207c0.295-0.05,0.532-0.27,0.604-0.559c0.094-0.377,0.243-0.735,0.443-1.066c0.153-0.255,0.144-0.575-0.027-0.818
			l-0.73-1.045l0.232-0.231l1.034,0.738c0.243,0.173,0.564,0.188,0.821,0.033c0.327-0.196,0.685-0.344,1.063-0.437
			c0.292-0.072,0.512-0.312,0.561-0.607l0.204-1.252h0.326l0.221,1.266c0.052,0.292,0.27,0.526,0.558,0.599
			c0.373,0.094,0.729,0.242,1.059,0.441c0.257,0.154,0.581,0.145,0.826-0.032l1.04-0.746l0.23,0.229l-0.744,1.061
			c-0.17,0.243-0.182,0.563-0.028,0.817c0.195,0.325,0.343,0.68,0.437,1.055c0.073,0.289,0.312,0.508,0.606,0.557l1.268,0.207
			V27.127z" fill="#AAAAAA"/>
		<path d="M32.407,24.097c-1.585,0-2.875,1.29-2.875,2.875s1.29,2.875,2.875,2.875s2.875-1.29,2.875-2.875
			S33.992,24.097,32.407,24.097z M32.407,28.347c-0.758,0-1.375-0.617-1.375-1.375s0.617-1.375,1.375-1.375s1.375,0.617,1.375,1.375
			S33.165,28.347,32.407,28.347z" fill="#AAAAAA"/>
	</g>
</g>
<g display="none" id="Warstwa_8">
	<g display="inline">
		<path d="M19.999,22.771c-1.081,0-2.079-0.198-2.993-0.552c-0.114,0.064-0.415,0.237-0.87,0.519
			c1.128,0.79,2.836,1.814,3.918,1.814c1.076,0,2.732-1.019,3.823-1.806c-0.465-0.286-0.771-0.462-0.885-0.527
			C22.079,22.573,21.08,22.771,19.999,22.771z" fill="none"/>
		<path d="M29.719,25c-2.289-1.777-4.132-2.969-5.163-3.599c3.095-2.042,4.85-6.077,4.85-10.025
			c0-5.821-3.692-9.583-9.407-9.583c-5.714,0-9.407,3.761-9.407,9.583c0,3.949,1.755,7.983,4.85,10.026
			c-1.031,0.63-2.875,1.821-5.164,3.598c-3.794,2.946-2.552,8.701-2.498,8.944c0.079,0.349,0.388,0.586,0.731,0.586
			c0.054,0,0.109-0.006,0.165-0.019c0.404-0.09,0.658-0.491,0.568-0.895c-0.011-0.051-1.084-5.074,1.954-7.432
			c1.381-1.072,2.607-1.932,3.58-2.578c0.833,0.624,2.64,1.87,4.264,2.295l-3.047,8.478c-0.092,0.255-0.039,0.538,0.137,0.743
			l3.299,3.834c0.14,0.163,0.343,0.258,0.558,0.261c0.003,0,0.007,0,0.01,0c0.211,0,0.413-0.089,0.555-0.245l3.638-4
			c0.192-0.211,0.248-0.513,0.144-0.778l-3.243-8.3c1.592-0.43,3.323-1.655,4.136-2.282c0.971,0.646,2.194,1.503,3.572,2.573
			c3.039,2.358,1.966,7.381,1.954,7.432c-0.089,0.403,0.165,0.805,0.569,0.895c0.055,0.013,0.11,0.019,0.164,0.019
			c0.343,0,0.652-0.237,0.73-0.586C32.272,33.702,33.515,27.947,29.719,25z M19.999,3.294c4.685,0,7.649,2.858,7.885,7.488
			c-1.017,0.133-2.893,0.248-4.872-0.304c-2.781-0.772-3.775-2.543-3.813-2.614C19.07,7.622,18.82,7.47,18.546,7.465
			c-0.303,0.002-0.529,0.142-0.665,0.379c-0.007,0.013-0.756,1.305-2.294,2.176c-0.994,0.563-2.498,0.819-3.48,0.933
			C12.277,6.223,15.256,3.294,19.999,3.294z M12.671,15.11c-0.019-0.058-0.037-0.115-0.054-0.173
			c-0.057-0.193-0.109-0.387-0.157-0.584c-0.033-0.132-0.064-0.264-0.092-0.397c-0.025-0.121-0.047-0.242-0.069-0.363
			c-0.037-0.204-0.07-0.408-0.097-0.615c-0.007-0.054-0.012-0.108-0.018-0.162c-0.014-0.119-0.03-0.238-0.041-0.358
			c0.003,0,0.006,0,0.01-0.001c1.103-0.12,2.909-0.416,4.173-1.132c1.013-0.574,1.745-1.29,2.214-1.846
			c0.695,0.78,1.977,1.863,4.068,2.444c2.108,0.585,4.075,0.512,5.262,0.373c0,0,0,0,0.001,0c-0.001,0.005-0.001,0.011-0.001,0.016
			c-0.018,0.229-0.048,0.457-0.078,0.685c-0.01,0.079-0.015,0.159-0.026,0.237c-0.042,0.278-0.096,0.554-0.156,0.827
			c-0.006,0.026-0.01,0.053-0.016,0.079c-0.68,2.976-2.445,5.571-5.015,6.627c-0.013,0.005-0.025,0.013-0.038,0.018
			c-0.21,0.085-0.429,0.152-0.649,0.216c-0.052,0.015-0.1,0.036-0.152,0.05c-0.257,0.067-0.522,0.117-0.794,0.154
			c-0.019,0.002-0.035,0.008-0.054,0.01c-0.29,0.037-0.588,0.057-0.894,0.057c-0.302,0-0.596-0.02-0.884-0.056
			c-0.039-0.005-0.075-0.016-0.114-0.021c-0.252-0.036-0.5-0.082-0.74-0.144c-0.01-0.003-0.02-0.007-0.03-0.01
			C15.513,20.328,13.573,17.991,12.671,15.11z M20.014,37.336l-2.461-2.86l2.53-7.038l2.685,6.87L20.014,37.336z M20.054,24.552
			c-1.083,0-2.791-1.024-3.918-1.814c0.455-0.281,0.756-0.454,0.87-0.519c0.914,0.354,1.912,0.552,2.993,0.552
			c1.081,0,2.08-0.198,2.994-0.552c0.114,0.065,0.42,0.241,0.885,0.527C22.787,23.534,21.13,24.552,20.054,24.552z" fill="#AAAAAA"/>
		<path d="M12.299,13.593c-0.036-0.204-0.07-0.408-0.097-0.615C12.229,13.185,12.263,13.389,12.299,13.593z" fill="#E2E2E2"/>
		<path d="M12.46,14.354c-0.032-0.132-0.064-0.264-0.092-0.397C12.396,14.09,12.428,14.222,12.46,14.354z" fill="#E2E2E2"/>
		<path d="M15.588,10.021c1.538-0.872,2.287-2.163,2.294-2.176c0.135-0.238,0.362-0.377,0.665-0.379
			c0.273,0.004,0.524,0.156,0.652,0.398c0.038,0.071,1.032,1.842,3.813,2.614c1.979,0.551,3.855,0.437,4.872,0.304
			c-0.235-4.629-3.2-7.488-7.885-7.488c-4.743,0-7.721,2.929-7.891,7.66C13.09,10.84,14.594,10.584,15.588,10.021z" fill="#E2E2E2"/>
		<path d="M12.144,12.459c0.01,0.12,0.026,0.239,0.041,0.358c-0.014-0.119-0.021-0.239-0.031-0.359
			C12.15,12.458,12.147,12.459,12.144,12.459z" fill="#E2E2E2"/>
		<path d="M12.671,15.11c-0.018-0.058-0.037-0.115-0.054-0.173C12.634,14.996,12.652,15.053,12.671,15.11z" fill="#E2E2E2"/>
		<path d="M18.261,21.051c-0.01-0.003-0.02-0.007-0.03-0.01C18.241,21.044,18.25,21.048,18.261,21.051z" fill="#E2E2E2"/>
		<path d="M21.892,21c-0.052,0.015-0.1,0.036-0.152,0.05C21.792,21.037,21.84,21.015,21.892,21z" fill="#E2E2E2"/>
		<path d="M20.946,21.205c-0.019,0.002-0.035,0.008-0.054,0.01C20.911,21.212,20.927,21.207,20.946,21.205z" fill="#E2E2E2"/>
		<path d="M27.872,12.296C27.871,12.296,27.871,12.296,27.872,12.296c-0.001,0.005-0.001,0.011-0.001,0.016
			C27.871,12.307,27.871,12.301,27.872,12.296z" fill="#E2E2E2"/>
		<path d="M19.115,21.215c-0.039-0.005-0.075-0.016-0.114-0.021C19.04,21.2,19.076,21.21,19.115,21.215z" fill="#E2E2E2"/>
		<path d="M22.58,20.767c-0.013,0.005-0.025,0.013-0.038,0.018C22.554,20.78,22.567,20.772,22.58,20.767z" fill="#E2E2E2"/>
		<path d="M27.792,12.997c-0.01,0.079-0.015,0.159-0.026,0.237C27.778,13.155,27.783,13.076,27.792,12.997z" fill="#E2E2E2"/>
		<path d="M27.61,14.061c-0.006,0.026-0.01,0.053-0.016,0.079C27.6,14.114,27.604,14.087,27.61,14.061z" fill="#E2E2E2"/>
		<polygon fill="#E2E2E2" points="17.553,34.476 20.014,37.336 22.768,34.308 20.083,27.438 		"/>
	</g>
</g>
<g display="none" id="Warstwa_9">
	<g display="inline">
		<path d="M22.001,21.845c-1.08,0-2.079-0.198-2.992-0.551c-0.255,0.145-1.472,0.847-3.239,2.076
			c0.778,0.851,2.79,2.61,6.151,2.61c3.123,0,5.179-1.748,6.104-2.753c-1.656-1.143-2.787-1.795-3.032-1.934
			C24.08,21.647,23.082,21.845,22.001,21.845z" fill="none"/>
		<path d="M11.335,24.998c-0.247-0.489-0.75-0.829-1.334-0.829H8c-0.827,0-1.5,0.673-1.5,1.5h4.336
			C10.985,25.438,11.152,25.214,11.335,24.998z" fill="none"/>
		<path d="M31.721,24.076c-2.289-1.777-4.133-2.969-5.164-3.599c3.096-2.042,4.851-6.077,4.851-10.025
			c0-5.821-3.692-9.583-9.406-9.583c-5.715,0-9.408,3.761-9.408,9.583c0,3.949,1.756,7.983,4.851,10.025
			c-1.005,0.613-2.785,1.767-4.994,3.469c-0.543-0.771-1.436-1.277-2.45-1.277H8c-1.656,0-3,1.344-3,3H3c-1.656,0-3,1.344-3,3v6.813
			c0,1.656,1.344,3,3,3h12.001c1.657,0,3-1.344,3-3v-6.813c0-1.656-1.344-3-3-3h-2c0-0.071-0.016-0.139-0.021-0.209
			c0.074-0.065,0.14-0.137,0.219-0.198c0.468-0.363,0.916-0.699,1.345-1.014c0.877,0.999,3.292,3.233,7.377,3.233
			c3.839,0,6.29-2.188,7.34-3.377c0.487,0.354,1,0.738,1.54,1.157c3.039,2.358,1.966,7.381,1.954,7.432
			c-0.089,0.403,0.165,0.805,0.569,0.895c0.055,0.013,0.11,0.019,0.164,0.019c0.343,0,0.652-0.237,0.73-0.586
			C34.274,32.777,35.517,27.022,31.721,24.076z M8,24.168h2.001c0.585,0,1.087,0.34,1.334,0.829c-0.184,0.217-0.35,0.44-0.499,0.671
			H6.5C6.5,24.841,7.173,24.168,8,24.168z M9,34.231c-0.655,0-1.188-0.532-1.188-1.188S8.346,31.856,9,31.856
			c0.655,0,1.188,0.532,1.188,1.188S9.656,34.231,9,34.231z M15.001,36.981H3c-0.827,0-1.5-0.673-1.5-1.5v-4.562l4.869,2.668
			C6.621,34.809,7.705,35.731,9,35.731s2.38-0.922,2.632-2.144l4.869-2.667v4.561C16.501,36.308,15.828,36.981,15.001,36.981z
			 M15.001,27.168c0.827,0,1.5,0.673,1.5,1.5v0.54l-5.04,2.762C11.045,31.022,10.1,30.356,9,30.356s-2.045,0.666-2.46,1.614
			L1.5,29.208v-0.54c0-0.827,0.673-1.5,1.5-1.5H15.001z M22.001,2.369c4.684,0,7.648,2.858,7.884,7.487
			c-1.017,0.133-2.894,0.248-4.872-0.303c-2.78-0.772-3.774-2.544-3.813-2.614c-0.128-0.242-0.378-0.394-0.651-0.398
			c-0.28,0.008-0.529,0.142-0.665,0.379c-0.007,0.013-0.756,1.305-2.293,2.176c-0.995,0.563-2.498,0.819-3.481,0.933
			C14.279,5.298,17.258,2.369,22.001,2.369z M14.675,14.19c-0.02-0.061-0.039-0.122-0.057-0.184
			c-0.056-0.188-0.106-0.379-0.153-0.572c-0.034-0.136-0.066-0.272-0.095-0.41c-0.024-0.115-0.045-0.231-0.066-0.347
			c-0.038-0.21-0.072-0.421-0.1-0.634c-0.006-0.045-0.01-0.09-0.016-0.136c-0.015-0.125-0.031-0.249-0.042-0.374
			c0.003,0,0.007-0.001,0.01-0.001c1.103-0.12,2.909-0.416,4.175-1.132c1.013-0.574,1.743-1.29,2.213-1.846
			c0.694,0.78,1.977,1.863,4.067,2.444c2.108,0.585,4.075,0.512,5.262,0.373c0,0,0,0,0.001,0c-0.001,0.005-0.001,0.01-0.001,0.016
			c-0.018,0.228-0.048,0.453-0.077,0.678c-0.011,0.081-0.016,0.164-0.027,0.245c-0.042,0.278-0.096,0.552-0.156,0.825
			c-0.006,0.027-0.01,0.054-0.016,0.081c-0.739,3.237-2.766,6.019-5.711,6.862c-0.049,0.014-0.094,0.035-0.143,0.047
			c-0.258,0.067-0.523,0.117-0.794,0.154c-0.019,0.002-0.035,0.008-0.054,0.011c-0.291,0.037-0.588,0.056-0.894,0.056
			c-0.302,0-0.597-0.02-0.884-0.056c-0.039-0.005-0.075-0.015-0.113-0.021c-0.253-0.036-0.5-0.082-0.741-0.144
			c-0.01-0.002-0.019-0.006-0.028-0.009C17.518,19.405,15.577,17.069,14.675,14.19z M21.921,25.981c-3.361,0-5.374-1.76-6.151-2.61
			c1.768-1.229,2.984-1.932,3.239-2.076c0.914,0.353,1.912,0.551,2.992,0.551s2.078-0.198,2.992-0.551
			c0.245,0.139,1.376,0.791,3.032,1.934C27.1,24.233,25.044,25.981,21.921,25.981z" fill="#AAAAAA"/>
		<path d="M17.591,9.096c1.537-0.872,2.286-2.163,2.293-2.176c0.135-0.238,0.384-0.371,0.665-0.379
			c0.273,0.004,0.523,0.156,0.651,0.398c0.039,0.07,1.033,1.842,3.813,2.614c1.979,0.55,3.855,0.436,4.872,0.303
			c-0.235-4.629-3.2-7.487-7.884-7.487c-4.743,0-7.722,2.929-7.892,7.66C15.093,9.916,16.596,9.66,17.591,9.096z" fill="#E2E2E2"/>
		<path d="M22.949,20.279c-0.019,0.002-0.035,0.008-0.054,0.011C22.914,20.287,22.93,20.281,22.949,20.279z" fill="#E2E2E2"/>
		<path d="M23.885,20.078c-0.049,0.014-0.094,0.035-0.143,0.047C23.792,20.112,23.836,20.092,23.885,20.078z" fill="#E2E2E2"/>
		<path d="M29.612,13.134c-0.006,0.027-0.01,0.054-0.016,0.081C29.602,13.188,29.606,13.161,29.612,13.134z" fill="#E2E2E2"/>
		<path d="M14.675,14.19c-0.019-0.061-0.039-0.122-0.057-0.184C14.636,14.068,14.655,14.129,14.675,14.19z" fill="#E2E2E2"/>
		<path d="M29.795,12.065c-0.011,0.081-0.016,0.164-0.027,0.245C29.78,12.229,29.785,12.146,29.795,12.065z" fill="#E2E2E2"/>
		<path d="M21.118,20.29c-0.039-0.005-0.075-0.015-0.113-0.021C21.042,20.275,21.079,20.285,21.118,20.29z" fill="#E2E2E2"/>
		<path d="M20.263,20.125c-0.01-0.002-0.019-0.006-0.028-0.009C20.245,20.12,20.253,20.123,20.263,20.125z" fill="#E2E2E2"/>
		<path d="M14.464,13.435c-0.033-0.136-0.066-0.271-0.095-0.41C14.398,13.163,14.43,13.299,14.464,13.435z" fill="#E2E2E2"/>
		<path d="M29.874,11.372C29.873,11.372,29.873,11.372,29.874,11.372c-0.001,0.005-0.001,0.011-0.001,0.016
			C29.873,11.382,29.873,11.377,29.874,11.372z" fill="#E2E2E2"/>
		<path d="M14.303,12.678c-0.037-0.21-0.073-0.421-0.1-0.634C14.231,12.257,14.265,12.468,14.303,12.678z" fill="#E2E2E2"/>
		<path d="M14.146,11.535c0.011,0.125,0.027,0.249,0.042,0.374c-0.014-0.125-0.021-0.25-0.032-0.375
			C14.153,11.534,14.149,11.534,14.146,11.535z" fill="#E2E2E2"/>
		<path d="M11.633,33.587c-0.252,1.222-1.336,2.144-2.632,2.144s-2.38-0.922-2.632-2.144L1.5,30.919v4.562
			c0,0.827,0.673,1.5,1.5,1.5h12.001c0.827,0,1.5-0.673,1.5-1.5V30.92L11.633,33.587z" fill="#E2E2E2"/>
		<path d="M3,27.168c-0.827,0-1.5,0.673-1.5,1.5v0.54l5.04,2.762c0.416-0.948,1.361-1.614,2.46-1.614
			s2.045,0.666,2.461,1.614l5.04-2.762v-0.54c0-0.827-0.673-1.5-1.5-1.5H3z" fill="#E2E2E2"/>
	</g>
</g>
<g display="none" id="Warstwa_10">
	<g display="inline">
		<path d="M31.5,6.234c0-0.773-0.588-1.412-1.34-1.492L12.941,9.234H31.5V6.234z" fill="none"/>
		<path d="M25.999,28.046c-1.656,0-5-1.342-5-3v-4.812c0-1.656,3.344-3,5-3H33.5v-5c0-0.827-0.673-1.5-1.5-1.5H7.192
			H7c-0.827,0-1.5,0.673-1.5,1.5v20.813c0,0.827,0.673,1.5,1.5,1.5h25c0.827,0,1.5-0.673,1.5-1.5v-5H25.999z" fill="#E2E2E2"/>
		<path d="M35,17.418v-5.185c0-1.304-0.838-2.403-2-2.816V6.234c0-1.657-1.344-3-3-3l-23,6c-1.656,0-3,1.343-3,3
			v20.813c0,1.658,1.344,3,3,3h25c1.656,0,3-1.342,3-3v-5.184c1.162-0.413,2-1.511,2-2.816v-4.812
			C37,18.931,36.163,17.832,35,17.418z M30.161,4.742c0.752,0.08,1.34,0.719,1.34,1.492v3H12.941L30.161,4.742z M32,34.546H7
			c-0.827,0-1.5-0.673-1.5-1.5V12.234c0-0.827,0.673-1.5,1.5-1.5h0.192H32c0.827,0,1.5,0.673,1.5,1.5v5h-7.502c-1.656,0-5,1.344-5,3
			v4.812c0,1.658,3.344,3,5,3H33.5v5C33.5,33.874,32.828,34.546,32,34.546z M35.5,25.046c0,0.827-0.673,1.5-1.5,1.5h-8.002
			c-1.231,0-3.26-0.972-3.5-1.539v-4.733c0.242-0.568,2.27-1.54,3.5-1.54H34c0.827,0,1.5,0.673,1.5,1.5V25.046z" fill="#AAAAAA"/>
		<circle cx="25.917" cy="22.64" fill="#AAAAAA" r="1.584"/>
	</g>
</g>
<g display="none" id="Warstwa_13">
	<g display="inline">
		<path d="M31.863,9.904C28.38,8.194,22.105,5.5,19.993,5.5c-2.101,0-8.303,2.662-11.769,4.362
			C6.366,11.007,6,11.715,6,12.546v20.813c0,0.827,0.673,1.5,1.5,1.5h25c0.827,0,1.5-0.673,1.5-1.5V12.546
			C34,11.627,33.062,10.467,31.863,9.904z M26.282,27.703c0,1.517-1.233,2.75-2.75,2.75h-7.063c-1.517,0-2.75-1.233-2.75-2.75
			v-10.25c0-1.517,1.233-2.75,2.75-2.75h7.063c1.517,0,2.75,1.233,2.75,2.75V27.703z" fill="#E2E2E2"/>
		<path d="M32.5,8.546c0,0-9.258-4.546-12.508-4.546S7.5,8.546,7.5,8.546c-2.012,1.229-3,2.343-3,4v20.813
			c0,1.658,1.344,3,3,3h25c1.656,0,3-1.342,3-3V12.546C35.5,10.89,34.091,9.293,32.5,8.546z M34,33.359c0,0.827-0.673,1.5-1.5,1.5
			h-25c-0.827,0-1.5-0.673-1.5-1.5V12.546c0-0.832,0.366-1.54,2.224-2.685c3.465-1.7,9.668-4.362,11.769-4.362
			c2.112,0,8.388,2.694,11.87,4.404C33.062,10.467,34,11.627,34,12.546V33.359z" fill="#AAAAAA"/>
		<path d="M23.532,14.703h-7.063c-1.517,0-2.75,1.233-2.75,2.75v10.25c0,1.517,1.233,2.75,2.75,2.75h7.063
			c1.517,0,2.75-1.233,2.75-2.75v-10.25C26.282,15.936,25.048,14.703,23.532,14.703z M23.532,28.953H20.75v-5.625h4.031v4.375
			C24.782,28.392,24.221,28.953,23.532,28.953z M15.219,27.703v-4.375h4.031v5.625h-2.781C15.78,28.953,15.219,28.392,15.219,27.703
			z M16.469,16.203h2.781v5.625h-4.031v-4.375C15.219,16.763,15.78,16.203,16.469,16.203z M20.75,21.828v-5.625h2.781
			c0.689,0,1.25,0.561,1.25,1.25v4.375H20.75z" fill="#AAAAAA"/>
	</g>
</g>
</svg>
